<svg height="48" viewBox="0 0 87.7 21">
  <path d="M37.6 7.5H34l-.9.9v4.3l.9.9h3.6l.9-.9V8.4l-.9-.9zm-.5 4.5c0 .2-.1.3-.3.3h-1.9c-.2 0-.3-.1-.3-.3V9.1c0-.2.1-.3.3-.3h1.9c.2 0 .3.1.3.3V12zm-6.4.2c-.1.1-.1.1-.2.1h-2.1c-.2 0-.3-.1-.3-.3v-.9h4V8.4l-.9-.9h-3.6l-.9.9v4.3l.9.9h3.6l1-1-.9-.9c-.1-.1-.6.5-.6.5zM28 9.1c0-.2.1-.3.3-.3h1.9c.2 0 .3.1.3.3v.8H28v-.8zm-2.5-3.9H24v2.3h-3l-.9.9v4.3l.9.9h3.6l.9-.9V5.2zM24.1 12c0 .2-.1.3-.3.3h-1.9c-.2 0-.3-.1-.3-.3V9.1c0-.2.1-.3.3-.3h1.9c.2 0 .3.1.3.3V12zm-7.3-4.5H19v6.1h-1.4V9c0-.2-.1-.3-.3-.3h-.5V7.5zm.7-.9H19V5.2h-1.5v1.4zm-4.9 2.1h1.9c.1 0 .1 0 .2.1l.5.5.9-.9-1-1h-3.4l-.9.9V10c0 .4.2.7.8.8l2.8.5c.1 0 .2.1.2.2v.5c0 .2-.1.3-.3.3h-1.8c-.1 0-.1 0-.2-.1l-.6-.5-.9.9 1 1h3.4l.9-.9V11c0-.4-.2-.7-.8-.8l-2.8-.5c-.1 0-.2-.1-.2-.2V9c0-.1.1-.3.3-.3zm-4.1 3.5c-.1.1-.2.1-.3.1h-2c-.2 0-.3-.1-.3-.3v-.9h4V8.4L9 7.5H5.3l-.9.9v4.3l.9.9H9l1-1-.9-.9c0-.1-.6.5-.6.5zM5.9 9.1c0-.2.1-.3.3-.3h1.9c.2 0 .3.1.3.3v.8H5.9v-.8zM0 8.4v5.2h1.4V9.1c0-.2.1-.3.3-.3h1.8V7.5H.9l-.9.9zm48.2 5c-.5.3-1.1.3-1.7.3-.6 0-1.1-.2-1.6-.8v2.9h-1V7.5h.9v.9c.4-.7 1.1-1 1.9-1 .5 0 .9 0 1.4.3 1 .5 1 1.9 1 2.9.1 1.3-.1 2.4-.9 2.8zm-.6-5.1c-.3-.2-.8-.2-1.1-.2-1.4 0-1.6.9-1.6 2.5 0 1.3.4 2.4 1.6 2.4.3 0 .8 0 1.1-.2.6-.4.6-1.2.6-2.2.1-1.1-.1-1.9-.6-2.3zm4 1.6v3.6h-1v-6h.9v1.3c.3-.9 1-1.4 2-1.4v.9c-1.2-.1-1.9.8-1.9 1.6zm6.9 3.5c-.5.3-1 .3-1.6.3-.6 0-1.1 0-1.6-.3-.9-.5-1-1.8-1-2.8 0-1 .1-2.4 1-2.9.5-.3 1-.3 1.6-.3.5 0 1.1 0 1.6.3 1 .5 1 1.9 1 2.9s-.1 2.3-1 2.8zM58 8.3c-.3-.2-.7-.2-1-.2s-.7 0-1 .2c-.5.3-.6 1.2-.6 2.2 0 1 .1 1.8.6 2.1.3.2.7.2 1 .2s.7 0 1-.2c.5-.3.6-1.1.6-2.1s-.1-1.9-.6-2.2zM67.1 10.8h-1.6v2.8h-.7V7.4h2.4c1 0 1.5.8 1.5 1.7 0 .9-.6 1.7-1.6 1.7zM67 8h-1.5v2.3H67c.8 0 1-.6 1-1.2-.1-.6-.2-1.1-1-1.1zm2.7 5.6V7.4h3.7V8h-3v2.2h2.1v.5h-2.1V13h3v.5c0 .1-3.7.1-3.7.1zm7.9 0l-1.4-2.8h-1.1v2.8h-.7V7.4h2.4c1 0 1.5.8 1.5 1.7 0 .8-.5 1.6-1.4 1.6l1.5 2.8h-.8zM76.7 8h-1.6v2.3h1.6c.7 0 .9-.6.9-1.2-.1-.5-.2-1.1-.9-1.1zm6 5.6l-2.6-3.2v3.2h-.7V7.4h.7v2.9l2.3-2.9h.9l-2.4 2.9 2.7 3.3h-.9zm4.3-.1c-.3.2-.7.2-1.3.2-.4 0-.9 0-1.2-.2-.4-.2-.6-.7-.7-1.4h.7c.1.4.2.7.4.8.2.2.6.2.8.2.2 0 .6 0 .9-.2.3-.2.3-.6.3-.9 0-.4-.3-.7-.7-.9L84.5 10c-.5-.3-.8-.8-.8-1.3s.2-1 .6-1.2c.4-.2.8-.3 1.2-.3.4 0 .8 0 1.1.2.4.2.6.6.8 1.3h-.8c-.1-.4-.2-.6-.4-.8-.2-.2-.5-.2-.8-.2-.4 0-.6 0-.8.1-.3.2-.3.5-.3.8 0 .4.3.7.7.9l1.7 1.1c.5.3.8.8.8 1.3.2.7-.1 1.3-.5 1.6z"/>
</svg>