<svg height="21" viewBox="0 0 161.43 28.59">
  <path d="M101.24 6.16h-9.79l-2.42 2.42v11.51l2.42 2.42h9.79l2.42-2.45V8.61l-2.42-2.45zm-1.45 12.12c.01.45-.34.82-.79.84h-5.27a.822.822 0 01-.84-.79v-7.95c-.01-.45.34-.82.79-.84h5.27c.45-.01.82.34.84.79v7.95zm-17.3.51c-.16.21-.41.33-.68.32h-5.6a.822.822 0 01-.84-.79V15.8h10.76V8.61l-2.42-2.45h-9.79L71.5 8.58v11.51l2.42 2.42h9.82l2.8-2.8-2.51-2.45-1.54 1.53zm-7.12-8.41c-.01-.45.34-.82.79-.84h5.27c.45-.01.82.34.84.79V12.64h-6.89v-2.26zM68.61 0h-3.99v6.16H56.4l-2.42 2.42v11.51l2.42 2.42h9.79l2.42-2.45V0zm-3.87 18.28c.01.45-.34.82-.79.84h-5.27a.822.822 0 01-.84-.79v-7.95c-.01-.45.34-.82.79-.84h5.27c.45-.01.82.34.84.79v7.95zM45.09 6.16h5.99V22.5h-3.87V10.28c.05-.36-.21-.7-.58-.74a.43.43 0 00-.16 0h-1.39V6.16zm2.07-2.36h3.99V0h-3.99v3.8zM33.89 9.54h5.03c.26 0 .51.11.68.32l1.35 1.35 2.54-2.45-2.61-2.61H31.7l-2.42 2.42v4.32c0 1.06.61 1.9 2.16 2.16l7.54 1.32c.3.01.53.27.52.57v1.33c.01.45-.34.82-.79.84H33.73a.9.9 0 01-.68-.32l-1.55-1.48-2.54 2.39 2.8 2.8h9.08l2.41-2.42v-4.64c0-1.06-.61-1.9-2.16-2.16l-7.54-1.32a.553.553 0 01-.52-.57v-1.01a.822.822 0 01.86-.84zM22.9 18.79c-.16.21-.41.33-.68.32h-5.6a.822.822 0 01-.84-.79V15.8h10.76V8.61l-2.41-2.45h-9.79l-2.42 2.42v11.51l2.42 2.42h9.82l2.8-2.8-2.51-2.45-1.55 1.53zm-7.12-8.41c-.01-.45.34-.82.79-.84h5.27c.45-.01.82.34.84.79V12.64h-6.89l-.01-2.26zM0 8.58V22.5h3.86V10.38c-.01-.45.34-.82.79-.84h5.01V6.16H2.42L0 8.58zm130.65 13.54c-1.41.61-2.95.88-4.48.77-1.69.02-3.28-.81-4.23-2.21v7.92h-2.63V6.15h2.4v2.31c1.12-2.02 2.88-2.69 5.13-2.69 1.32-.09 2.63.18 3.81.77 2.63 1.44 2.79 5.13 2.79 7.89-.01 3.55-.65 6.5-2.79 7.69M129.17 8.4c-.94-.45-1.97-.65-3.01-.58-3.62 0-4.39 2.53-4.39 6.61 0 3.43.96 6.41 4.39 6.41 1.04.08 2.08-.13 3.01-.61 1.54-.99 1.7-3.27 1.7-5.8 0-2.73-.29-5.1-1.7-6.03m11.31 4.39v9.71h-2.6V6.15h2.37v3.43a5.56 5.56 0 015.48-3.82v2.4a5 5 0 00-5.26 4.62m18.17 9.3c-2.7 1.07-5.7 1.07-8.39 0-2.53-1.38-2.79-4.94-2.79-7.6 0-2.76.16-6.48 2.79-7.92 2.7-1.07 5.7-1.07 8.39 0 2.63 1.44 2.79 5.16 2.79 7.92 0 2.66-.26 6.22-2.79 7.6m-1.41-13.66c-1.77-.81-3.8-.81-5.57 0-1.35.87-1.63 3.3-1.63 6.06 0 2.79.32 4.91 1.63 5.74 1.77.81 3.8.81 5.57 0 1.41-.9 1.63-3.05 1.63-5.74 0-3.04-.25-5.19-1.63-6.06"/>
</svg>
